<?xml version="1.0" encoding="iso-8859-1"?>
<!-- Generator: Adobe Illustrator 19.1.0, SVG Export Plug-In . SVG Version: 6.00 Build 0)  -->
<svg version="1.1" id="Capa_1" xmlns="http://www.w3.org/2000/svg" xmlns:xlink="http://www.w3.org/1999/xlink" x="0px" y="0px"
	 viewBox="0 0 487.139 487.139" style="enable-background:new 0 0 487.139 487.139;" xml:space="preserve">
<g>
	<g>
		<path d="M204.87,232.439L204.87,232.439c0.2,0,0.4,0,0.6,0c0.2,0,0.4,0,0.6,0l0,0c104.4-1.1,89.2-140.4,89.2-140.4
			c-4.3-93.1-82.2-92.3-89.8-92c-7.7-0.3-85.6-1.1-89.8,92C115.67,91.939,100.47,231.339,204.87,232.439z"/>
		<path d="M382.97,301.839c-7.3-11-18.1-19.2-34.4-25.1c-47.2-18-75.5-36.5-75.5-36.5l-36.4,115l-5,15.6l-16.3-46.2
			c37.4-52.2-2.8-54.7-9.8-54.8l0,0h-0.1h-0.1h-0.1h-0.1l0,0c-7,0.1-47.2,2.5-9.8,54.8l-16.3,46.2l-5-15.6l-36.4-115
			c0,0-28.3,18.5-75.5,36.5c-52,18.9-48.8,61.7-49.8,141.9h192.7h0.5h82.5c-0.3-3.4-0.5-6.8-0.5-10.3
			C287.67,353.239,329.47,307.739,382.97,301.839z"/>
		<path d="M396.17,329.939c-43.4,0-78.7,35.2-78.7,78.6s35.2,78.6,78.7,78.6c43.4,0,78.6-35.2,78.6-78.6
			S439.67,329.939,396.17,329.939z M434.57,419.239h-27.7v27.7h-21.3v-27.7h-27.7v-21.3h27.7v-27.7h21.3v27.7h27.7V419.239z"/>
	</g>
</g>
<g>
</g>
<g>
</g>
<g>
</g>
<g>
</g>
<g>
</g>
<g>
</g>
<g>
</g>
<g>
</g>
<g>
</g>
<g>
</g>
<g>
</g>
<g>
</g>
<g>
</g>
<g>
</g>
<g>
</g>
</svg>
