<svg xmlns="http://www.w3.org/2000/svg" width="142.403" height="142.407" viewBox="0 0 142.403 142.407">
  <g id="checked" transform="translate(-0.004)">
    <path id="Path_2232" data-name="Path 2232" d="M71.208,0a71.2,71.2,0,1,0,71.2,71.2A71.2,71.2,0,0,0,71.208,0Zm0,129.056A57.853,57.853,0,1,1,129.056,71.2,57.851,57.851,0,0,1,71.208,129.056ZM99.191,40.915a6.2,6.2,0,0,0-8.633,2.4L66.682,86.205,53.385,70.02c-2.408-2.772-5.607-4.21-8.629-2.4s-4.277,6.168-2.318,8.963L60.941,99.1a7.805,7.805,0,0,0,4.615,3.182l.013.027.169.009c.374.058,5.964,1.09,8.371-3.217l27.4-49.224A6.7,6.7,0,0,0,99.191,40.915Z" fill="#0196e1"/>
  </g>
</svg>
