<svg id="_x33_0" enable-background="new 0 0 64 64" height="512" viewBox="0 0 64 64" width="512" xmlns="http://www.w3.org/2000/svg"><path d="m18 37c-1.654 0-3 1.346-3 3s1.346 3 3 3 3-1.346 3-3-1.346-3-3-3zm0 4c-.552 0-1-.449-1-1s.448-1 1-1 1 .449 1 1-.448 1-1 1z"/><path d="m43.962 27.275.674-2.362-2.132 1.219c-.307.175-7.504 4.351-7.504 9.868 0 1.717.781 3.31 2.321 4.734l1.357-1.469c-1.114-1.029-1.678-2.128-1.678-3.265 0-2.797 2.652-5.34 4.568-6.812-.24 2.792.707 4.636 1.63 6.432.886 1.724 1.802 3.507 1.802 6.38 0 4.119-3.117 4.997-3.242 5.03l.484 1.94c1.646-.411 4.758-2.397 4.758-6.97 0-3.356-1.075-5.449-2.023-7.294-1.127-2.194-2.017-3.926-1.015-7.431z"/><path d="m61.604 24.094c-.273-.921-.509-1.716-.624-2.29-.909-4.548 1.85-9.243 1.878-9.291l1.05-1.759-2.032.254c-.086.011-.671.087-1.56.262 1.095-2.293 1.634-4.92 1.665-5.074l.474-2.368-2.009 1.339c-1.892 1.261-3.799 1.653-4.777 1.776.318-2.16.331-3.778.331-3.943v-2.414l-1.707 1.707c-.048.048-4.894 4.816-13.51 6.731-3.149.7-5.614 2.073-7.283 3.983-3.392-2.966-8.266-3.007-8.5-3.007l-2.404.001 1.696 1.705c.027.027 2.708 2.752 2.708 5.294 0 1.214-.929 2.111-2.443 3.472-1.652 1.485-3.633 3.266-4.313 6.267l-2.245-2.113-15.961 15.026c-1.243 1.089-1.388 3.008-.322 4.278.793.946 2.124 1.275 3.284.871v18.199h26v-11.644c2.031.599 5.999 1.644 9 1.644 16.211 0 19.859-7.845 19.994-14.602 2.093-2.206 3.006-4.442 3.006-7.398 0-2.199-.773-4.809-1.396-6.906zm-6.307-15.106c.637-.037 2.254-.208 4.154-1.02-.429 1.37-1.057 2.961-1.836 3.956-1.155.33-2.431.763-3.698 1.333.628-1.404 1.075-2.881 1.38-4.269zm-52.049 33.657c-.372-.443-.323-1.111.135-1.513l14.616-13.758 14.643 13.782c.432.378.48 1.045.109 1.488-.344.411-1.032.427-1.363.141l-13.389-12.784-13.356 12.754c-.406.352-1.055.296-1.395-.11zm19.752 12.355h-4v-4h4zm0 2v4h-4v-4zm-4-8v-2c1.474 0 2.75.81 3.444 2zm-2 0h-3.444c.694-1.19 1.97-2 3.444-2zm-4 2h4v4h-4zm0 6h4v4h-4zm12 4v-10c0-3.309-2.691-6-6-6h-2c-3.309 0-6 2.691-6 6v10h-4v-17.732l10.999-10.501 11.001 10.502v17.731zm34.702-25.403c-.37-1.537-1.032-2.903-1.687-4.234-1.41-2.867-2.742-5.575-1.078-10.012l1.151-3.071-2.669 1.906c-.303.217-7.419 5.374-7.419 11.814 0 2.534.926 4.36 1.669 5.828.872 1.72 1.227 2.526.499 3.618l1.664 1.109c1.406-2.109.499-3.899-.379-5.631-.681-1.344-1.453-2.868-1.453-4.924 0-3.253 2.358-6.262 4.252-8.153-.437 3.509.825 6.075 1.968 8.399.916 1.86 1.78 3.618 1.78 5.754 0 8.626-6.056 13-18 13-3.026 0-7.348-1.228-9-1.733v-4.444c.319.113.656.177.999.177.882 0 1.714-.391 2.284-1.072 1.065-1.269.92-3.187-.297-4.252l-3.986-3.753v-2.923c0-4.173 3.129-5.806 6.44-7.535 1.623-.847 3.155-1.646 4.267-2.758 2.044-2.043 2.819-4.866 3.113-6.738 1.331 1.342 3.18 3.941 3.18 8.031h2c0-7.48-5.262-10.723-5.485-10.857l-1.509-.904-.006 1.76c0 .046-.045 4.632-2.707 7.294-.895.895-2.295 1.625-3.777 2.399-3.349 1.748-7.516 3.923-7.516 9.308v1.041l-5.96-5.61c.207-3.155 2.048-4.849 3.853-6.471 1.528-1.373 3.107-2.792 3.107-4.96 0-1.758-.856-3.467-1.696-4.721 1.526.312 3.511.985 5.029 2.384-.87 1.545-1.333 3.337-1.333 5.337h2c0-4.642 2.918-7.846 8.217-9.024 6.085-1.352 10.377-4.013 12.641-5.715-.29 2.85-1.177 7.697-3.865 10.399-.241.204-.478.412-.699.633l.706.707.625.781c.029-.023.053-.051.081-.075l.001.001c2.105-2.105 5.464-3.327 8-4s0 0 0-.001c.549-.146 1.074-.275 1.523-.372-.854 2.014-1.901 5.408-1.211 8.861.133.663.381 1.499.667 2.466.585 1.975 1.314 4.43 1.314 6.339 0 1.822-.39 3.236-1.298 4.597z"/></svg>