<svg xmlns="http://www.w3.org/2000/svg" data-name="Layer 1" viewBox="0 0 512 640" x="0px" y="0px"><title>like</title><g><path d="M256,494.29l-41.11-41.11c-67.74-59.92-118.5-105.77-154.8-149.94C19.09,253.37,0,208.76,0,162.85,0,123.34,14.89,86.68,41.94,59.64s63.7-41.94,103.21-41.94C186.33,17.71,227,35.13,256,64.76c29-29.63,69.67-47.05,110.85-47.05,39.51,0,76.17,14.89,103.21,41.94S512,123.34,512,162.85c0,45.9-19.09,90.51-60.09,140.39-36.3,44.17-87.07,90-154.8,149.94ZM145.15,37C74.59,37,19.32,92.3,19.32,162.85c0,87.28,75.37,158.21,208.59,276.06l0.43,0.4L256,467l28.09-28.06C417.31,321.06,492.68,250.13,492.68,162.85,492.68,92.3,437.41,37,366.85,37c-38.61,0-78.26,18.51-103.48,48.31L256,94.05l-7.37-8.72C223.41,55.54,183.76,37,145.15,37Z"/></g></svg>