<svg height="427pt" viewBox="0 0 427 427.49412" width="427pt" xmlns="http://www.w3.org/2000/svg"><path d="m421.492188 335.910156-150.890626-150.890625c21.433594-61.246093-2.332031-129.175781-57.277343-163.699219-54.941407-34.527343-126.457031-26.46875-172.339844 19.414063-45.886719 45.886719-53.941406 117.402344-19.417969 172.34375 34.523438 54.941406 102.453125 78.710937 163.703125 57.277344l50.472657 50.472656h21.332031v21.332031l21.332031 21.332032h42.667969v42.667968l21.332031 21.332032h64s21.335938.027343 21.335938-21.332032v-55.164062c0-5.65625-2.25-11.082032-6.25-15.085938zm-324.417969-207.082031c-17.671875 0-32-14.328125-32-32s14.328125-32 32-32 32 14.328125 32 32-14.328125 32-32 32zm0 0" fill="#fcdf3f"/><path d="m251.300781 188.121094c14.777344-47.453125.730469-99.167969-36.019531-132.628906-36.75-33.457032-89.550781-42.605469-135.414062-23.453126-45.863282 19.152344-76.480469 63.132813-78.523438 112.789063 2.761719 72.3125 60.75 130.300781 133.0625 133.0625 0 0 22.921875 2.355469 50.863281-7.535156l50.472657 50.472656h21.332031v21.332031l21.332031 21.332032h42.667969v42.667968l21.332031 21.332032h64s21.335938.027343 21.335938-21.332032v-41.601562zm-154.226562-59.292969c-17.671875 0-32-14.328125-32-32s14.328125-32 32-32 32 14.328125 32 32-14.328125 32-32 32zm0 0" fill="#ffef7d"/><path d="m406.40625 427.492188c-5.65625.007812-11.085938-2.242188-15.082031-6.25l-149.332031-149.332032c-8.339844-8.328125-8.34375-21.839844-.007813-30.175781 8.332031-8.332031 21.84375-8.328125 30.171875.007813l149.335938 149.335937c6.097656 6.101563 7.921874 15.273437 4.621093 23.246094-3.300781 7.972656-11.078125 13.167969-19.707031 13.167969zm0 0" fill="#fcdf3f"/><path d="m139.742188 256.828125c-5.890626 0-10.667969-4.777344-10.667969-10.667969s4.777343-10.667968 10.667969-10.667968c53.019531 0 96-42.980469 96-96 0-53.015626-42.980469-96-96-96-5.886719-.003907-10.65625-4.777344-10.65625-10.664063s4.769531-10.660156 10.65625-10.667969c64.8125-.019531 117.367187 52.519532 117.367187 117.332032 0 64.816406-52.554687 117.355468-117.367187 117.335937zm0 0" fill="#fcdf3f"/><path d="m139.742188 256.828125c-64.800782 0-117.335938-52.53125-117.335938-117.335937 0-64.800782 52.535156-117.332032 117.335938-117.332032 5.894531-.003906 10.675781 4.773438 10.675781 10.667969s-4.78125 10.671875-10.675781 10.664063c-53.019532 0-96 42.984374-96 96 0 53.019531 42.980468 96 96 96 5.890624 0 10.664062 4.777343 10.664062 10.667968s-4.773438 10.667969-10.664062 10.667969zm0 0" fill="#fbc700"/><path d="m395.742188 427.492188c-2.832032.003906-5.542969-1.121094-7.542969-3.125l-149.332031-149.332032c-4.164063-4.164062-4.160157-10.914062.003906-15.078125 4.164062-4.164062 10.914062-4.164062 15.078125-.003906l149.332031 149.332031c3.050781 3.050782 3.964844 7.636719 2.3125 11.625-1.648438 3.984375-5.539062 6.582032-9.851562 6.582032zm0 0" fill="#fbc700"/><path d="m182.40625 214.160156c-4.3125 0-8.199219-2.597656-9.851562-6.585937-1.652344-3.984375-.738282-8.570313 2.3125-11.621094l35.125-35.125-27.585938-27.585937-13.789062 13.792968c-4.167969 4.164063-10.917969 4.164063-15.085938 0-4.164062-4.164062-4.164062-10.917968 0-15.082031l21.335938-21.335937c4.164062-4.164063 10.917968-4.164063 15.082031 0l42.667969 42.667968c4.164062 4.164063 4.164062 10.917969 0 15.082032l-42.667969 42.667968c-1.996094 2.003906-4.710938 3.128906-7.542969 3.125zm0 0" fill="#fcdf3f"/><path d="m161.074219 235.492188c-2.828125.003906-5.542969-1.121094-7.542969-3.125l-42.664062-42.664063c-4.167969-4.164063-4.167969-10.917969 0-15.085937l42.664062-42.664063c4.167969-4.164063 10.917969-4.164063 15.085938 0 4.164062 4.164063 4.164062 10.917969 0 15.082031l-35.125 35.125 27.582031 27.582032 13.792969-13.789063c4.164062-4.167969 10.917968-4.171875 15.085937-.003906 4.167969 4.164062 4.164063 10.921875-.003906 15.085937l-21.332031 21.332032c-2 2.003906-4.714844 3.128906-7.542969 3.125zm0 0" fill="#fbc700"/></svg>