<svg height="449pt" viewBox="-28 0 449 449.004" width="449pt" xmlns="http://www.w3.org/2000/svg"><path d="m218.609375 269.546875c0-6.019531.605469-12.023437 1.804687-17.921875-21.023437-10.3125-44.132812-15.65625-67.546874-15.625-41.285157 0-79.6875 16.015625-108.132813 45.09375-27.398437 28.007812-43.136719 65.894531-44.73046875 107.308594h246.81249975v-53.351563c-17.96875-17.054687-28.164062-40.730469-28.207031-65.503906zm0 0"/><path d="m317.597656 258.316406-4.726562-14.148437-4.726563 14.148437c-.957031 2.855469-3.628906 4.78125-6.640625 4.78125h-14.746094l11.765626 8.320313c2.519531 1.78125 3.574218 5.003906 2.597656 7.933593l-4.597656 13.761719 12.296874-8.699219c2.421876-1.710937 5.660157-1.710937 8.082032 0l12.300781 8.699219-4.597656-13.765625c-.980469-2.925781.078125-6.148437 2.597656-7.933594l11.765625-8.316406h-14.738281c-3.011719-.003906-5.679688-1.929687-6.632813-4.78125zm0 0"/><path d="m260.816406 346.136719v102.867187l47.292969-43.808594c2.683594-2.484374 6.832031-2.484374 9.515625 0l47.300781 43.808594v-102.867187c-31.695312 20.433593-72.410156 20.433593-104.101562 0zm0 0"/><path d="m312.867188 191.628906c-44.253907 0-80.257813 34.953125-80.257813 77.917969s36 77.917969 80.257813 77.917969c44.257812 0 80.257812-34.953125 80.257812-77.917969s-36.003906-77.917969-80.257812-77.917969zm52.175781 70.179688-25.5 18.035156 9.71875 29.097656c.957031 2.871094-.039063 6.03125-2.46875 7.835938-2.429688 1.804687-5.742188 1.84375-8.214844.097656l-25.707031-18.175781-25.707032 18.175781c-2.472656 1.746094-5.785156 1.707031-8.214843-.097656-2.429688-1.804688-3.425781-4.964844-2.46875-7.835938l9.71875-29.097656-25.5-18.035156c-2.492188-1.761719-3.554688-4.929688-2.628907-7.835938.921876-2.90625 3.621094-4.878906 6.667969-4.878906h31.730469l9.765625-29.25c.953125-2.859375 3.628906-4.785156 6.640625-4.785156s5.6875 1.925781 6.640625 4.785156l9.765625 29.25h31.730469c3.046875 0 5.746093 1.972656 6.671875 4.878906.921875 2.90625-.140625 6.074219-2.632813 7.835938zm0 0"/><path d="m241.867188 89c0 49.152344-39.847657 89-89 89-49.152344 0-89-39.847656-89-89s39.847656-89 89-89c49.152343 0 89 39.847656 89 89zm0 0"/></svg>